<?xml version="1.0" standalone="yes"?>

<svg version="1.1" viewBox="0.0 0.0 875.7296587926509 503.6745406824147" fill="none" stroke="none" stroke-linecap="square" stroke-miterlimit="10" xmlns="http://www.w3.org/2000/svg" xmlns:xlink="http://www.w3.org/1999/xlink"><clipPath id="p.0"><path d="m0 0l875.7297 0l0 503.67453l-875.7297 0l0 -503.67453z" clip-rule="nonzero"></path></clipPath><g clip-path="url(#p.0)"><path fill="#000000" fill-opacity="0.0" d="m0 0l875.7297 0l0 503.67453l-875.7297 0z" fill-rule="evenodd"></path><path fill="#cfe2f3" d="m568.0 187.2546l0 128.88188l-282.17325 0l0 -128.88188z" fill-rule="evenodd"></path><path stroke="#000000" stroke-width="1.0" stroke-linejoin="round" stroke-linecap="butt" d="m568.0 187.2546l0 128.88188l-282.17325 0l0 -128.88188z" fill-rule="evenodd"></path><path fill="#cfe2f3" d="m566.3779 34.07874l0 81.44882l-283.7795 0l0 -81.44882z" fill-rule="evenodd"></path><path stroke="#000000" stroke-width="1.0" stroke-linejoin="round" stroke-linecap="butt" d="m566.3779 34.07874l0 81.44882l-283.7795 0l0 -81.44882z" fill-rule="evenodd"></path><path fill="#000000" fill-opacity="0.0" d="m319.10236 54.317585l226.20471 0l0 81.44882l-226.20471 0z" fill-rule="evenodd"></path><path fill="#000000" d="m337.7586 86.35759l0 -1.578125q-1.1875 1.859375 -3.484375 1.859375q-1.484375 0 -2.734375 -0.8125q-1.25 -0.828125 -1.9375 -2.296875q-0.671875 -1.46875 -0.671875 -3.390625q0 -1.859375 0.609375 -3.375q0.625 -1.515625 1.859375 -2.328125q1.25 -0.8125 2.78125 -0.8125q1.125 0 2.0 0.484375q0.890625 0.46875 1.4375 1.234375l0 -6.171875l2.09375 0l0 17.1875l-1.953125 0zm-6.671875 -6.21875q0 2.390625 1.0 3.578125q1.015625 1.1875 2.390625 1.1875q1.390625 0 2.34375 -1.125q0.96875 -1.140625 0.96875 -3.453125q0 -2.5625 -0.984375 -3.75q-0.984375 -1.203125 -2.421875 -1.203125q-1.40625 0 -2.359375 1.15625q-0.9375 1.140625 -0.9375 3.609375zm11.957031 -8.53125l0 -2.4375l2.109375 0l0 2.4375l-2.109375 0zm0 14.75l0 -12.453125l2.109375 0l0 12.453125l-2.109375 0zm4.4726562 -3.71875l2.09375 -0.328125q0.171875 1.25 0.96875 1.921875q0.8125 0.671875 2.25 0.671875q1.453125 0 2.15625 -0.59375q0.703125 -0.59375 0.703125 -1.390625q0 -0.71875 -0.625 -1.125q-0.421875 -0.28125 -2.15625 -0.71875q-2.3125 -0.578125 -3.21875 -1.0q-0.890625 -0.4375 -1.359375 -1.1875q-0.453125 -0.765625 -0.453125 -1.671875q0 -0.828125 0.375 -1.53125q0.390625 -0.71875 1.046875 -1.1875q0.484375 -0.359375 1.328125 -0.609375q0.859375 -0.265625 1.828125 -0.265625q1.46875 0 2.578125 0.421875q1.109375 0.421875 1.625 1.15625q0.53125 0.71875 0.734375 1.921875l-2.0625 0.28125q-0.140625 -0.96875 -0.8125 -1.5q-0.671875 -0.546875 -1.90625 -0.546875q-1.453125 0 -2.078125 0.484375q-0.625 0.484375 -0.625 1.125q0 0.40625 0.265625 0.734375q0.25 0.34375 0.8125 0.5625q0.3125 0.125 1.859375 0.546875q2.234375 0.59375 3.109375 0.984375q0.890625 0.375 1.390625 1.109375q0.515625 0.71875 0.515625 1.796875q0 1.046875 -0.625 1.984375q-0.609375 0.9375 -1.765625 1.453125q-1.15625 0.5 -2.625 0.5q-2.421875 0 -3.703125 -1.0q-1.265625 -1.015625 -1.625 -3.0zm12.84375 8.484375l0 -17.21875l1.921875 0l0 1.625q0.6875 -0.953125 1.53125 -1.421875q0.859375 -0.484375 2.078125 -0.484375q1.59375 0 2.8125 0.828125q1.21875 0.8125 1.84375 2.3125q0.625 1.5 0.625 3.28125q0 1.90625 -0.6875 3.4375q-0.6875 1.53125 -2.0 2.34375q-1.296875 0.8125 -2.734375 0.8125q-1.0625 0 -1.90625 -0.4375q-0.828125 -0.453125 -1.375 -1.140625l0 6.0625l-2.109375 0zm1.921875 -10.921875q0 2.40625 0.96875 3.5625q0.96875 1.140625 2.359375 1.140625q1.40625 0 2.40625 -1.1875q1.0 -1.1875 1.0 -3.6875q0 -2.375 -0.984375 -3.5625q-0.96875 -1.1875 -2.328125 -1.1875q-1.359375 0 -2.390625 1.265625q-1.03125 1.25 -1.03125 3.65625zm19.550781 4.625q-1.171875 0.984375 -2.265625 1.40625q-1.078125 0.40625 -2.3125 0.40625q-2.046875 0 -3.15625 -1.0q-1.09375 -1.0 -1.09375 -2.5625q0 -0.921875 0.40625 -1.671875q0.421875 -0.75 1.09375 -1.203125q0.671875 -0.46875 1.515625 -0.703125q0.625 -0.15625 1.875 -0.3125q2.5625 -0.3125 3.765625 -0.734375q0.015625 -0.421875 0.015625 -0.546875q0 -1.28125 -0.609375 -1.8125q-0.796875 -0.71875 -2.390625 -0.71875q-1.5 0 -2.203125 0.53125q-0.703125 0.515625 -1.046875 1.84375l-2.0625 -0.28125q0.28125 -1.328125 0.921875 -2.140625q0.640625 -0.8125 1.859375 -1.25q1.21875 -0.453125 2.828125 -0.453125q1.59375 0 2.59375 0.375q1.0 0.375 1.46875 0.953125q0.46875 0.5625 0.65625 1.4375q0.09375 0.53125 0.09375 1.9375l0 2.8125q0 2.9375 0.140625 3.71875q0.140625 0.78125 0.53125 1.5l-2.203125 0q-0.328125 -0.65625 -0.421875 -1.53125zm-0.171875 -4.71875q-1.15625 0.46875 -3.453125 0.796875q-1.296875 0.1875 -1.84375 0.421875q-0.53125 0.234375 -0.828125 0.6875q-0.28125 0.453125 -0.28125 1.0q0 0.84375 0.625 1.40625q0.640625 0.5625 1.875 0.5625q1.21875 0 2.171875 -0.53125q0.953125 -0.53125 1.390625 -1.453125q0.34375 -0.71875 0.34375 -2.109375l0 -0.78125zm10.003906 4.359375l0.3125 1.859375q-0.890625 0.203125 -1.59375 0.203125q-1.15625 0 -1.796875 -0.359375q-0.625 -0.375 -0.890625 -0.96875q-0.25 -0.59375 -0.25 -2.484375l0 -7.171875l-1.546875 0l0 -1.640625l1.546875 0l0 -3.078125l2.09375 -1.265625l0 4.34375l2.125 0l0 1.640625l-2.125 0l0 7.28125q0 0.90625 0.109375 1.171875q0.125 0.25 0.375 0.40625q0.25 0.140625 0.71875 0.140625q0.34375 0 0.921875 -0.078125zm10.183594 -2.671875l2.078125 0.265625q-0.34375 2.15625 -1.75 3.375q-1.390625 1.203125 -3.4375 1.203125q-2.546875 0 -4.109375 -1.671875q-1.546875 -1.671875 -1.546875 -4.78125q0 -2.015625 0.671875 -3.53125q0.671875 -1.515625 2.03125 -2.265625q1.359375 -0.765625 2.96875 -0.765625q2.03125 0 3.3125 1.03125q1.296875 1.03125 1.65625 2.90625l-2.046875 0.328125q-0.296875 -1.265625 -1.046875 -1.890625q-0.734375 -0.640625 -1.796875 -0.640625q-1.59375 0 -2.59375 1.15625q-0.984375 1.140625 -0.984375 3.609375q0 2.5 0.953125 3.640625q0.96875 1.140625 2.515625 1.140625q1.234375 0 2.0625 -0.765625q0.84375 -0.765625 1.0625 -2.34375zm3.875 4.5625l0 -17.1875l2.109375 0l0 6.171875q1.484375 -1.71875 3.734375 -1.71875q1.375 0 2.390625 0.546875q1.03125 0.546875 1.46875 1.515625q0.4375 0.953125 0.4375 2.78125l0 7.890625l-2.109375 0l0 -7.890625q0 -1.578125 -0.6875 -2.296875q-0.6875 -0.71875 -1.9375 -0.71875q-0.9375 0 -1.765625 0.484375q-0.828125 0.484375 -1.1875 1.3125q-0.34375 0.828125 -0.34375 2.296875l0 6.8125l-2.109375 0zm21.878906 -4.015625l2.171875 0.28125q-0.515625 1.90625 -1.90625 2.96875q-1.390625 1.046875 -3.5625 1.046875q-2.734375 0 -4.34375 -1.671875q-1.59375 -1.6875 -1.59375 -4.734375q0 -3.140625 1.609375 -4.875q1.625 -1.734375 4.203125 -1.734375q2.5 0 4.078125 1.703125q1.59375 1.703125 1.59375 4.78125q0 0.1875 -0.015625 0.5625l-9.28125 0q0.109375 2.046875 1.15625 3.140625q1.046875 1.09375 2.609375 1.09375q1.15625 0 1.96875 -0.609375q0.828125 -0.609375 1.3125 -1.953125zm-6.9375 -3.40625l6.953125 0q-0.140625 -1.5625 -0.796875 -2.359375q-1.0 -1.21875 -2.609375 -1.21875q-1.453125 0 -2.453125 0.984375q-0.984375 0.96875 -1.09375 2.59375zm11.738281 7.421875l0 -12.453125l1.890625 0l0 1.890625q0.734375 -1.328125 1.34375 -1.75q0.625 -0.421875 1.359375 -0.421875q1.0625 0 2.171875 0.6875l-0.734375 1.953125q-0.765625 -0.453125 -1.546875 -0.453125q-0.6875 0 -1.25 0.421875q-0.546875 0.40625 -0.78125 1.140625q-0.34375 1.125 -0.34375 2.46875l0 6.515625l-2.109375 0zm12.0390625 5.046875q-1.734375 -2.203125 -2.953125 -5.15625q-1.203125 -2.953125 -1.203125 -6.109375q0 -2.796875 0.90625 -5.34375q1.046875 -2.96875 3.25 -5.90625l1.515625 0q-1.421875 2.4375 -1.875 3.46875q-0.71875 1.625 -1.125 3.375q-0.5 2.203125 -0.5 4.40625q0 5.640625 3.5 11.265625l-1.515625 0zm2.3515625 -5.046875l6.59375 -17.1875l2.453125 0l7.03125 17.1875l-2.59375 0l-2.0 -5.203125l-7.1875 0l-1.890625 5.203125l-2.40625 0zm4.953125 -7.0625l5.828125 0l-1.796875 -4.75q-0.8125 -2.171875 -1.21875 -3.5625q-0.328125 1.65625 -0.921875 3.28125l-1.890625 5.03125zm20.789062 2.5l2.078125 0.265625q-0.34375 2.15625 -1.75 3.375q-1.390625 1.203125 -3.4375 1.203125q-2.546875 0 -4.109375 -1.671875q-1.546875 -1.671875 -1.546875 -4.78125q0 -2.015625 0.671875 -3.53125q0.671875 -1.515625 2.03125 -2.265625q1.359375 -0.765625 2.96875 -0.765625q2.03125 0 3.3125 1.03125q1.296875 1.03125 1.65625 2.90625l-2.046875 0.328125q-0.296875 -1.265625 -1.046875 -1.890625q-0.734375 -0.640625 -1.796875 -0.640625q-1.59375 0 -2.59375 1.15625q-0.984375 1.140625 -0.984375 3.609375q0 2.5 0.953125 3.640625q0.96875 1.140625 2.515625 1.140625q1.234375 0 2.0625 -0.765625q0.84375 -0.765625 1.0625 -2.34375zm8.484375 2.671875l0.3125 1.859375q-0.890625 0.203125 -1.59375 0.203125q-1.15625 0 -1.796875 -0.359375q-0.625 -0.375 -0.890625 -0.96875q-0.25 -0.59375 -0.25 -2.484375l0 -7.171875l-1.546875 0l0 -1.640625l1.546875 0l0 -3.078125l2.09375 -1.265625l0 4.34375l2.125 0l0 1.640625l-2.125 0l0 7.28125q0 0.90625 0.109375 1.171875q0.125 0.25 0.375 0.40625q0.25 0.140625 0.71875 0.140625q0.34375 0 0.921875 -0.078125zm2.0742188 -12.859375l0 -2.4375l2.109375 0l0 2.4375l-2.109375 0zm0 14.75l0 -12.453125l2.109375 0l0 12.453125l-2.109375 0zm4.5351562 -6.21875q0 -3.46875 1.921875 -5.125q1.609375 -1.390625 3.921875 -1.390625q2.5625 0 4.1875 1.6875q1.625 1.6875 1.625 4.640625q0 2.40625 -0.71875 3.78125q-0.71875 1.375 -2.09375 2.140625q-1.375 0.765625 -3.0 0.765625q-2.625 0 -4.234375 -1.671875q-1.609375 -1.6875 -1.609375 -4.828125zm2.171875 0q0 2.390625 1.03125 3.578125q1.046875 1.1875 2.640625 1.1875q1.5625 0 2.609375 -1.1875q1.046875 -1.203125 1.046875 -3.65625q0 -2.3125 -1.0625 -3.5q-1.046875 -1.1875 -2.59375 -1.1875q-1.59375 0 -2.640625 1.1875q-1.03125 1.1875 -1.03125 3.578125zm11.957031 6.21875l0 -12.453125l1.90625 0l0 1.78125q1.375 -2.0625 3.953125 -2.0625q1.125 0 2.0625 0.40625q0.953125 0.40625 1.421875 1.0625q0.46875 0.65625 0.65625 1.5625q0.125 0.578125 0.125 2.046875l0 7.65625l-2.109375 0l0 -7.578125q0 -1.28125 -0.25 -1.921875q-0.25 -0.640625 -0.875 -1.015625q-0.625 -0.390625 -1.46875 -0.390625q-1.34375 0 -2.328125 0.859375q-0.984375 0.859375 -0.984375 3.25l0 6.796875l-2.109375 0zm14.738281 5.046875l-1.515625 0q3.5 -5.625 3.5 -11.265625q0 -2.203125 -0.5 -4.359375q-0.390625 -1.765625 -1.109375 -3.375q-0.453125 -1.0625 -1.890625 -3.515625l1.515625 0q2.203125 2.9375 3.25 5.90625q0.90625 2.546875 0.90625 5.34375q0 3.15625 -1.21875 6.109375q-1.203125 2.953125 -2.9375 5.15625z" fill-rule="nonzero"></path><path fill="#000000" fill-opacity="0.0" d="m349.32193 227.17711l176.94485 0l0 49.039352l-176.94485 0z" fill-rule="evenodd"></path><path fill="#000000" d="m360.21255 259.2171l0 -17.1875l7.609375 0q2.296875 0 3.484375 0.46875q1.203125 0.46875 1.921875 1.640625q0.71875 1.171875 0.71875 2.578125q0 1.828125 -1.1875 3.09375q-1.1875 1.25 -3.65625 1.59375q0.90625 0.421875 1.375 0.84375q1.0 0.921875 1.890625 2.296875l2.984375 4.671875l-2.859375 0l-2.28125 -3.578125q-0.984375 -1.546875 -1.640625 -2.359375q-0.640625 -0.828125 -1.15625 -1.15625q-0.5 -0.328125 -1.03125 -0.453125q-0.390625 -0.078125 -1.265625 -0.078125l-2.640625 0l0 7.625l-2.265625 0zm2.265625 -9.59375l4.890625 0q1.5625 0 2.4375 -0.328125q0.875 -0.328125 1.328125 -1.03125q0.46875 -0.703125 0.46875 -1.546875q0 -1.21875 -0.890625 -2.0q-0.875 -0.78125 -2.796875 -0.78125l-5.4375 0l0 5.6875zm23.285156 5.578125l2.171875 0.28125q-0.515625 1.90625 -1.90625 2.96875q-1.390625 1.046875 -3.5625 1.046875q-2.734375 0 -4.34375 -1.671875q-1.59375 -1.6875 -1.59375 -4.734375q0 -3.140625 1.609375 -4.875q1.625 -1.734375 4.203125 -1.734375q2.5 0 4.078125 1.703125q1.59375 1.703125 1.59375 4.78125q0 0.1875 -0.015625 0.5625l-9.28125 0q0.109375 2.046875 1.15625 3.140625q1.046875 1.09375 2.609375 1.09375q1.15625 0 1.96875 -0.609375q0.828125 -0.609375 1.3125 -1.953125zm-6.9375 -3.40625l6.953125 0q-0.140625 -1.5625 -0.796875 -2.359375q-1.0 -1.21875 -2.609375 -1.21875q-1.453125 0 -2.453125 0.984375q-0.984375 0.96875 -1.09375 2.59375zm19.832031 7.421875l0 -1.578125q-1.1875 1.859375 -3.484375 1.859375q-1.484375 0 -2.734375 -0.8125q-1.25 -0.828125 -1.9375 -2.296875q-0.671875 -1.46875 -0.671875 -3.390625q0 -1.859375 0.609375 -3.375q0.625 -1.515625 1.859375 -2.328125q1.25 -0.8125 2.78125 -0.8125q1.125 0 2.0 0.484375q0.890625 0.46875 1.4375 1.234375l0 -6.171875l2.09375 0l0 17.1875l-1.953125 0zm-6.671875 -6.21875q0 2.390625 1.0 3.578125q1.015625 1.1875 2.390625 1.1875q1.390625 0 2.34375 -1.125q0.96875 -1.140625 0.96875 -3.453125q0 -2.5625 -0.984375 -3.75q-0.984375 -1.203125 -2.421875 -1.203125q-1.40625 0 -2.359375 1.15625q-0.9375 1.140625 -0.9375 3.609375zm20.097656 6.21875l0 -1.828125q-1.453125 2.109375 -3.9375 2.109375q-1.109375 0 -2.0625 -0.421875q-0.953125 -0.421875 -1.421875 -1.0625q-0.453125 -0.640625 -0.640625 -1.5625q-0.140625 -0.625 -0.140625 -1.96875l0 -7.71875l2.109375 0l0 6.90625q0 1.65625 0.140625 2.234375q0.1875 0.828125 0.828125 1.3125q0.65625 0.46875 1.609375 0.46875q0.9375 0 1.765625 -0.484375q0.84375 -0.5 1.1875 -1.328125q0.34375 -0.84375 0.34375 -2.4375l0 -6.671875l2.109375 0l0 12.453125l-1.890625 0zm13.316406 -4.5625l2.078125 0.265625q-0.34375 2.15625 -1.75 3.375q-1.390625 1.203125 -3.4375 1.203125q-2.546875 0 -4.109375 -1.671875q-1.546875 -1.671875 -1.546875 -4.78125q0 -2.015625 0.671875 -3.53125q0.671875 -1.515625 2.03125 -2.265625q1.359375 -0.765625 2.96875 -0.765625q2.03125 0 3.3125 1.03125q1.296875 1.03125 1.65625 2.90625l-2.046875 0.328125q-0.296875 -1.265625 -1.046875 -1.890625q-0.734375 -0.640625 -1.796875 -0.640625q-1.59375 0 -2.59375 1.15625q-0.984375 1.140625 -0.984375 3.609375q0 2.5 0.953125 3.640625q0.96875 1.140625 2.515625 1.140625q1.234375 0 2.0625 -0.765625q0.84375 -0.765625 1.0625 -2.34375zm12.40625 0.546875l2.171875 0.28125q-0.515625 1.90625 -1.90625 2.96875q-1.390625 1.046875 -3.5625 1.046875q-2.734375 0 -4.34375 -1.671875q-1.59375 -1.6875 -1.59375 -4.734375q0 -3.140625 1.609375 -4.875q1.625 -1.734375 4.203125 -1.734375q2.5 0 4.078125 1.703125q1.59375 1.703125 1.59375 4.78125q0 0.1875 -0.015625 0.5625l-9.28125 0q0.109375 2.046875 1.15625 3.140625q1.046875 1.09375 2.609375 1.09375q1.15625 0 1.96875 -0.609375q0.828125 -0.609375 1.3125 -1.953125zm-6.9375 -3.40625l6.953125 0q-0.140625 -1.5625 -0.796875 -2.359375q-1.0 -1.21875 -2.609375 -1.21875q-1.453125 0 -2.453125 0.984375q-0.984375 0.96875 -1.09375 2.59375zm11.738281 7.421875l0 -12.453125l1.890625 0l0 1.890625q0.734375 -1.328125 1.34375 -1.75q0.625 -0.421875 1.359375 -0.421875q1.0625 0 2.171875 0.6875l-0.734375 1.953125q-0.765625 -0.453125 -1.546875 -0.453125q-0.6875 0 -1.25 0.421875q-0.546875 0.40625 -0.78125 1.140625q-0.34375 1.125 -0.34375 2.46875l0 6.515625l-2.109375 0zm7.1640625 -3.71875l2.09375 -0.328125q0.171875 1.25 0.96875 1.921875q0.8125 0.671875 2.25 0.671875q1.453125 0 2.15625 -0.59375q0.703125 -0.59375 0.703125 -1.390625q0 -0.71875 -0.625 -1.125q-0.421875 -0.28125 -2.15625 -0.71875q-2.3125 -0.578125 -3.21875 -1.0q-0.890625 -0.4375 -1.359375 -1.1875q-0.453125 -0.765625 -0.453125 -1.671875q0 -0.828125 0.375 -1.53125q0.390625 -0.71875 1.046875 -1.1875q0.484375 -0.359375 1.328125 -0.609375q0.859375 -0.265625 1.828125 -0.265625q1.46875 0 2.578125 0.421875q1.109375 0.421875 1.625 1.15625q0.53125 0.71875 0.734375 1.921875l-2.0625 0.28125q-0.140625 -0.96875 -0.8125 -1.5q-0.671875 -0.546875 -1.90625 -0.546875q-1.453125 0 -2.078125 0.484375q-0.625 0.484375 -0.625 1.125q0 0.40625 0.265625 0.734375q0.25 0.34375 0.8125 0.5625q0.3125 0.125 1.859375 0.546875q2.234375 0.59375 3.109375 0.984375q0.890625 0.375 1.390625 1.109375q0.515625 0.71875 0.515625 1.796875q0 1.046875 -0.625 1.984375q-0.609375 0.9375 -1.765625 1.453125q-1.15625 0.5 -2.625 0.5q-2.421875 0 -3.703125 -1.0q-1.265625 -1.015625 -1.625 -3.0z" fill-rule="nonzero"></path><path fill="#cfe2f3" d="m285.82678 390.1286l282.17322 0l0 90.74017l-282.17322 0z" fill-rule="evenodd"></path><path stroke="#000000" stroke-width="1.0" stroke-linejoin="round" stroke-linecap="butt" d="m285.82678 390.1286l282.17322 0l0 90.74017l-282.17322 0z" fill-rule="evenodd"></path><path fill="#000000" fill-opacity="0.0" d="m394.3653 413.70032l56.094482 0l0 112.22046l-56.094482 0z" fill-rule="evenodd"></path><path fill="#000000" d="m416.4903 428.55283l2.28125 0l0 9.9375q0 2.578125 -0.59375 4.109375q-0.578125 1.515625 -2.109375 2.484375q-1.53125 0.953125 -4.015625 0.953125q-2.421875 0 -3.953125 -0.828125q-1.53125 -0.84375 -2.1875 -2.421875q-0.65625 -1.578125 -0.65625 -4.296875l0 -9.9375l2.265625 0l0 9.921875q0 2.234375 0.421875 3.296875q0.421875 1.0625 1.421875 1.640625q1.015625 0.5625 2.484375 0.5625q2.515625 0 3.578125 -1.125q1.0625 -1.140625 1.0625 -4.375l0 -9.921875zm6.4414062 17.1875l0 -17.1875l2.28125 0l0 17.1875l-2.28125 0z" fill-rule="nonzero"></path><path fill="#000000" fill-opacity="0.0" d="m427.58978 126.82459l0.56692505 47.779533" fill-rule="evenodd"></path><path stroke="#000000" stroke-width="1.0" stroke-linejoin="round" stroke-linecap="butt" d="m427.58978 126.8246l0.49572754 41.779953" fill-rule="evenodd"></path><path fill="#000000" stroke="#000000" stroke-width="1.0" stroke-linecap="butt" d="m426.4339 168.62415l1.7054443 4.518173l1.5977783 -4.557373z" fill-rule="evenodd"></path><path fill="#000000" fill-opacity="0.0" d="m426.91864 328.7034l0.09448242 53.29135" fill-rule="evenodd"></path><path stroke="#000000" stroke-width="1.0" stroke-linejoin="round" stroke-linecap="butt" d="m426.91864 328.7034l0.083862305 47.29135" fill-rule="evenodd"></path><path fill="#000000" stroke="#000000" stroke-width="1.0" stroke-linecap="butt" d="m425.35077 375.99768l1.6597595 4.5351562l1.6436768 -4.5410156z" fill-rule="evenodd"></path><path fill="#cfe2f3" d="m837.18896 187.2546l0 128.88188l-130.64569 0l0 -128.88188z" fill-rule="evenodd"></path><path stroke="#000000" stroke-width="1.0" stroke-linejoin="round" stroke-linecap="butt" d="m837.18896 187.2546l0 128.88188l-130.64569 0l0 -128.88188z" fill-rule="evenodd"></path><path fill="#000000" fill-opacity="0.0" d="m734.83374 227.17711l176.94489 0l0 49.039352l-176.94489 0z" fill-rule="evenodd"></path><path fill="#000000" d="m744.91187 253.70148l2.140625 -0.1875q0.15625 1.28125 0.703125 2.109375q0.5625 0.828125 1.734375 1.34375q1.171875 0.5 2.640625 0.5q1.296875 0 2.296875 -0.375q1.0 -0.390625 1.484375 -1.0625q0.484375 -0.6875 0.484375 -1.484375q0 -0.796875 -0.46875 -1.40625q-0.46875 -0.609375 -1.546875 -1.015625q-0.6875 -0.265625 -3.0625 -0.828125q-2.359375 -0.578125 -3.3125 -1.078125q-1.234375 -0.640625 -1.84375 -1.59375q-0.59375 -0.96875 -0.59375 -2.140625q0 -1.3125 0.734375 -2.4375q0.75 -1.125 2.15625 -1.703125q1.421875 -0.59375 3.15625 -0.59375q1.90625 0 3.359375 0.609375q1.46875 0.609375 2.25 1.8125q0.796875 1.1875 0.84375 2.703125l-2.171875 0.171875q-0.171875 -1.640625 -1.1875 -2.46875q-1.015625 -0.828125 -3.0 -0.828125q-2.0625 0 -3.015625 0.765625q-0.9375 0.75 -0.9375 1.8125q0 0.921875 0.671875 1.515625q0.65625 0.609375 3.421875 1.234375q2.78125 0.625 3.8125 1.09375q1.5 0.6875 2.203125 1.75q0.71875 1.0625 0.71875 2.4375q0 1.375 -0.78125 2.59375q-0.78125 1.203125 -2.25 1.890625q-1.46875 0.671875 -3.3125 0.671875q-2.328125 0 -3.90625 -0.671875q-1.578125 -0.6875 -2.484375 -2.046875q-0.890625 -1.375 -0.9375 -3.09375zm21.117188 3.625l0.3125 1.859375q-0.890625 0.203125 -1.59375 0.203125q-1.15625 0 -1.796875 -0.359375q-0.625 -0.375 -0.890625 -0.96875q-0.25 -0.59375 -0.25 -2.484375l0 -7.171875l-1.546875 0l0 -1.640625l1.546875 0l0 -3.078125l2.09375 -1.265625l0 4.34375l2.125 0l0 1.640625l-2.125 0l0 7.28125q0 0.90625 0.109375 1.171875q0.125 0.25 0.375 0.40625q0.25 0.140625 0.71875 0.140625q0.34375 0 0.921875 -0.078125zm1.2773438 -4.328125q0 -3.46875 1.921875 -5.125q1.609375 -1.390625 3.921875 -1.390625q2.5625 0 4.1875 1.6875q1.625 1.6875 1.625 4.640625q0 2.40625 -0.71875 3.78125q-0.71875 1.375 -2.09375 2.140625q-1.375 0.765625 -3.0 0.765625q-2.625 0 -4.234375 -1.671875q-1.609375 -1.6875 -1.609375 -4.828125zm2.171875 0q0 2.390625 1.03125 3.578125q1.046875 1.1875 2.640625 1.1875q1.5625 0 2.609375 -1.1875q1.046875 -1.203125 1.046875 -3.65625q0 -2.3125 -1.0625 -3.5q-1.046875 -1.1875 -2.59375 -1.1875q-1.59375 0 -2.640625 1.1875q-1.03125 1.1875 -1.03125 3.578125zm11.941406 6.21875l0 -12.453125l1.890625 0l0 1.890625q0.734375 -1.328125 1.34375 -1.75q0.625 -0.421875 1.359375 -0.421875q1.0625 0 2.171875 0.6875l-0.734375 1.953125q-0.765625 -0.453125 -1.546875 -0.453125q-0.6875 0 -1.25 0.421875q-0.546875 0.40625 -0.78125 1.140625q-0.34375 1.125 -0.34375 2.46875l0 6.515625l-2.109375 0zm16.539062 -4.015625l2.171875 0.28125q-0.515625 1.90625 -1.90625 2.96875q-1.390625 1.046875 -3.5625 1.046875q-2.734375 0 -4.34375 -1.671875q-1.59375 -1.6875 -1.59375 -4.734375q0 -3.140625 1.609375 -4.875q1.625 -1.734375 4.203125 -1.734375q2.5 0 4.078125 1.703125q1.59375 1.703125 1.59375 4.78125q0 0.1875 -0.015625 0.5625l-9.28125 0q0.109375 2.046875 1.15625 3.140625q1.046875 1.09375 2.609375 1.09375q1.15625 0 1.96875 -0.609375q0.828125 -0.609375 1.3125 -1.953125zm-6.9375 -3.40625l6.953125 0q-0.140625 -1.5625 -0.796875 -2.359375q-1.0 -1.21875 -2.609375 -1.21875q-1.453125 0 -2.453125 0.984375q-0.984375 0.96875 -1.09375 2.59375z" fill-rule="nonzero"></path><path fill="#000000" fill-opacity="0.0" d="m600.7808 251.69554l72.97638 0" fill-rule="evenodd"></path><path stroke="#000000" stroke-width="1.0" stroke-linejoin="round" stroke-linecap="butt" d="m600.7808 251.69554l66.97638 0" fill-rule="evenodd"></path><path fill="#000000" stroke="#000000" stroke-width="1.0" stroke-linecap="butt" d="m667.7572 253.34727l4.538086 -1.6517334l-4.538086 -1.6517334z" fill-rule="evenodd"></path><path fill="#cfe2f3" d="m86.10761 34.07874l103.99999 0l0 446.80316l-103.99999 0z" fill-rule="evenodd"></path><path stroke="#000000" stroke-width="1.0" stroke-linejoin="round" stroke-linecap="butt" d="m86.10761 34.07874l103.99999 0l0 446.80316l-103.99999 0z" fill-rule="evenodd"></path><path fill="#000000" fill-opacity="0.0" d="m114.35696 377.15222l0 -370.83463l87.77953 0l0 370.83463z" fill-rule="evenodd"></path><path fill="#000000" d="m146.39696 368.18347l-17.1875 -6.59375l0 -2.453125l17.1875 -7.03125l0 2.59375l-5.203125 2.0l0 7.1875l5.203125 1.890625l0 2.40625zm-7.0625 -4.953125l0 -5.828125l-4.75 1.796875q-2.171875 0.8125 -3.5625 1.21875q1.65625 0.328125 3.28125 0.921875l5.03125 1.890625zm2.5 -20.789062l0.265625 -2.078125q2.15625 0.34375 3.375 1.75q1.203125 1.390625 1.203125 3.4375q0 2.546875 -1.671875 4.109375q-1.671875 1.546875 -4.78125 1.546875q-2.015625 0 -3.53125 -0.671875q-1.515625 -0.671875 -2.265625 -2.03125q-0.765625 -1.359375 -0.765625 -2.96875q0 -2.03125 1.03125 -3.3125q1.03125 -1.296875 2.90625 -1.65625l0.328125 2.046875q-1.265625 0.296875 -1.890625 1.046875q-0.640625 0.734375 -0.640625 1.796875q0 1.59375 1.15625 2.59375q1.140625 0.984375 3.609375 0.984375q2.5 0 3.640625 -0.953125q1.140625 -0.96875 1.140625 -2.515625q0 -1.234375 -0.765625 -2.0625q-0.765625 -0.84375 -2.34375 -1.0625zm2.671875 -8.484375l1.859375 -0.3125q0.203125 0.890625 0.203125 1.59375q0 1.15625 -0.359375 1.796875q-0.375 0.625 -0.96875 0.890625q-0.59375 0.25 -2.484375 0.25l-7.171875 0l0 1.546875l-1.640625 0l0 -1.546875l-3.078125 0l-1.265625 -2.09375l4.34375 0l0 -2.125l1.640625 0l0 2.125l7.28125 0q0.90625 0 1.171875 -0.109375q0.25 -0.125 0.40625 -0.375q0.140625 -0.25 0.140625 -0.71875q0 -0.34375 -0.078125 -0.921875zm-12.859375 -2.0742188l-2.4375 0l0 -2.109375l2.4375 0l0 2.109375zm14.75 0l-12.453125 0l0 -2.109375l12.453125 0l0 2.109375zm-6.21875 -4.5351562q-3.46875 0 -5.125 -1.921875q-1.390625 -1.609375 -1.390625 -3.921875q0 -2.5625 1.6875 -4.1875q1.6875 -1.625 4.640625 -1.625q2.40625 0 3.78125 0.71875q1.375 0.71875 2.140625 2.09375q0.765625 1.375 0.765625 3.0q0 2.625 -1.671875 4.234375q-1.6875 1.609375 -4.828125 1.609375zm0 -2.171875q2.390625 0 3.578125 -1.03125q1.1875 -1.046875 1.1875 -2.640625q0 -1.5625 -1.1875 -2.609375q-1.203125 -1.046875 -3.65625 -1.046875q-2.3125 0 -3.5 1.0625q-1.1875 1.046875 -1.1875 2.59375q0 1.59375 1.1875 2.640625q1.1875 1.03125 3.578125 1.03125zm6.21875 -11.957031l-12.453125 0l0 -1.90625l1.78125 0q-2.0625 -1.375 -2.0625 -3.953125q0 -1.125 0.40625 -2.0625q0.40625 -0.953125 1.0625 -1.421875q0.65625 -0.46875 1.5625 -0.65625q0.578125 -0.125 2.046875 -0.125l7.65625 0l0 2.109375l-7.578125 0q-1.28125 0 -1.921875 0.25q-0.640625 0.25 -1.015625 0.875q-0.390625 0.625 -0.390625 1.46875q0 1.34375 0.859375 2.328125q0.859375 0.984375 3.25 0.984375l6.796875 0l0 2.109375zm-6.03125 -32.546875l0.578125 -2.28125q2.796875 0.71875 4.28125 2.578125q1.46875 1.859375 1.46875 4.546875q0 2.765625 -1.125 4.515625q-1.140625 1.734375 -3.28125 2.640625q-2.15625 0.90625 -4.609375 0.90625q-2.6875 0 -4.6875 -1.015625q-2.0 -1.03125 -3.03125 -2.921875q-1.03125 -1.890625 -1.03125 -4.171875q0 -2.578125 1.3125 -4.328125q1.3125 -1.765625 3.6875 -2.453125l0.53125 2.234375q-1.875 0.609375 -2.734375 1.75q-0.859375 1.125 -0.859375 2.84375q0 1.984375 0.953125 3.3125q0.953125 1.328125 2.546875 1.875q1.59375 0.53125 3.296875 0.53125q2.1875 0 3.828125 -0.625q1.640625 -0.640625 2.453125 -1.984375q0.796875 -1.359375 0.796875 -2.921875q0 -1.921875 -1.09375 -3.234375q-1.109375 -1.328125 -3.28125 -1.796875zm-0.1875 -4.0195312q-3.46875 0 -5.125 -1.921875q-1.390625 -1.609375 -1.390625 -3.921875q0 -2.5625 1.6875 -4.1875q1.6875 -1.625 4.640625 -1.625q2.40625 0 3.78125 0.71875q1.375 0.71875 2.140625 2.09375q0.765625 1.375 0.765625 3.0q0 2.625 -1.671875 4.234375q-1.6875 1.609375 -4.828125 1.609375zm0 -2.171875q2.390625 0 3.578125 -1.03125q1.1875 -1.046875 1.1875 -2.640625q0 -1.5625 -1.1875 -2.609375q-1.203125 -1.046875 -3.65625 -1.046875q-2.3125 0 -3.5 1.0625q-1.1875 1.046875 -1.1875 2.59375q0 1.59375 1.1875 2.640625q1.1875 1.03125 3.578125 1.03125zm6.21875 -11.957031l-12.453125 0l0 -1.90625l1.78125 0q-2.0625 -1.375 -2.0625 -3.953125q0 -1.1249847 0.40625 -2.0624847q0.40625 -0.953125 1.0625 -1.421875q0.65625 -0.46875 1.5625 -0.65625q0.578125 -0.125 2.046875 -0.125l7.65625 0l0 2.109375l-7.578125 0q-1.28125 0 -1.921875 0.25q-0.640625 0.25 -1.015625 0.875q-0.390625 0.62498474 -0.390625 1.4687347q0 1.34375 0.859375 2.328125q0.859375 0.984375 3.25 0.984375l6.796875 0l0 2.109375zm-3.71875 -12.503891l-0.328125 -2.09375q1.25 -0.171875 1.921875 -0.96875q0.671875 -0.8125 0.671875 -2.25q0 -1.453125 -0.59375 -2.15625q-0.59375 -0.703125 -1.390625 -0.703125q-0.71875 0 -1.125 0.625q-0.28125 0.421875 -0.71875 2.15625q-0.578125 2.3125 -1.0 3.21875q-0.4375 0.890625 -1.1875 1.359375q-0.765625 0.453125 -1.671875 0.453125q-0.828125 0 -1.53125 -0.375q-0.71875 -0.390625 -1.1875 -1.046875q-0.359375 -0.484375 -0.609375 -1.328125q-0.265625 -0.859375 -0.265625 -1.828125q0 -1.46875 0.421875 -2.578125q0.421875 -1.109375 1.15625 -1.625q0.71875 -0.53125 1.921875 -0.734375l0.28125 2.0625q-0.96875 0.140625 -1.5 0.8125q-0.546875 0.671875 -0.546875 1.90625q0 1.453125 0.484375 2.078125q0.484375 0.625 1.125 0.625q0.40625 0 0.734375 -0.265625q0.34375 -0.25 0.5625 -0.8125q0.125 -0.3125 0.546875 -1.859375q0.59375 -2.234375 0.984375 -3.109375q0.375 -0.890625 1.109375 -1.390625q0.71875 -0.515625 1.796875 -0.515625q1.046875 0 1.984375 0.625q0.9375 0.609375 1.453125 1.765625q0.5 1.15625 0.5 2.625q0 2.421875 -1.0 3.703125q-1.015625 1.265625 -3.0 1.625zm1.828125 -17.453125l1.859375 -0.3125q0.203125 0.890625 0.203125 1.59375q0 1.15625 -0.359375 1.796875q-0.375 0.625 -0.96875 0.890625q-0.59375 0.25 -2.484375 0.25l-7.171875 0l0 1.546875l-1.640625 0l0 -1.546875l-3.078125 0l-1.265625 -2.09375l4.34375 0l0 -2.125l1.640625 0l0 2.125l7.28125 0q0.90625 0 1.171875 -0.109375q0.25 -0.125 0.40625 -0.375q0.140625 -0.25 0.140625 -0.71875q0 -0.34375 -0.078125 -0.921875zm1.890625 -2.0429688l-12.453125 0l0 -1.890625l1.890625 0q-1.328125 -0.734375 -1.75 -1.34375q-0.421875 -0.625 -0.421875 -1.359375q0 -1.0625 0.6875 -2.171875l1.953125 0.734375q-0.453125 0.765625 -0.453125 1.546875q0 0.6875 0.421875 1.25q0.40625 0.546875 1.140625 0.78125q1.125 0.34375 2.46875 0.34375l6.515625 0l0 2.109375zm0 -16.164062l-1.828125 0q2.109375 1.453125 2.109375 3.9375q0 1.109375 -0.421875 2.0625q-0.421875 0.953125 -1.0625 1.421875q-0.640625 0.453125 -1.5625 0.640625q-0.625 0.140625 -1.96875 0.140625l-7.71875 0l0 -2.109375l6.90625 0q1.65625 0 2.234375 -0.140625q0.828125 -0.1875 1.3125 -0.828125q0.46875 -0.65625 0.46875 -1.609375q0 -0.9375 -0.484375 -1.765625q-0.5 -0.84375 -1.328125 -1.1875q-0.84375 -0.34375 -2.4375 -0.34375l-6.671875 0l0 -2.109375l12.453125 0l0 1.890625zm-4.5625 -13.316406l0.265625 -2.078125q2.15625 0.34375 3.375 1.75q1.203125 1.390625 1.203125 3.4375q0 2.546875 -1.671875 4.109375q-1.671875 1.546875 -4.78125 1.546875q-2.015625 0 -3.53125 -0.671875q-1.515625 -0.671875 -2.265625 -2.03125q-0.765625 -1.359375 -0.765625 -2.96875q0 -2.03125 1.03125 -3.3125q1.03125 -1.296875 2.90625 -1.65625l0.328125 2.046875q-1.265625 0.296875 -1.890625 1.046875q-0.640625 0.734375 -0.640625 1.796875q0 1.59375 1.15625 2.59375q1.140625 0.984375 3.609375 0.984375q2.5 0 3.640625 -0.953125q1.140625 -0.96875 1.140625 -2.515625q0 -1.234375 -0.765625 -2.0625q-0.765625 -0.84375 -2.34375 -1.0625zm2.671875 -8.484375l1.859375 -0.3125q0.203125 0.890625 0.203125 1.59375q0 1.15625 -0.359375 1.796875q-0.375 0.625 -0.96875 0.890625q-0.59375 0.25 -2.484375 0.25l-7.171875 0l0 1.546875l-1.640625 0l0 -1.546875l-3.078125 0l-1.265625 -2.09375l4.34375 0l0 -2.125l1.640625 0l0 2.125l7.28125 0q0.90625 0 1.171875 -0.109375q0.25 -0.125 0.40625 -0.375q0.140625 -0.25 0.140625 -0.71875q0 -0.34375 -0.078125 -0.921875zm-4.328125 -1.2773438q-3.46875 0 -5.125 -1.921875q-1.390625 -1.609375 -1.390625 -3.921875q0 -2.5625 1.6875 -4.1875q1.6875 -1.625 4.640625 -1.625q2.40625 0 3.78125 0.71875q1.375 0.71875 2.140625 2.09375q0.765625 1.375 0.765625 3.0q0 2.625 -1.671875 4.234375q-1.6875 1.609375 -4.828125 1.609375zm0 -2.171875q2.390625 0 3.578125 -1.03125q1.1875 -1.046875 1.1875 -2.640625q0 -1.5625 -1.1875 -2.609375q-1.203125 -1.046875 -3.65625 -1.046875q-2.3125 0 -3.5 1.0625q-1.1875 1.046875 -1.1875 2.59375q0 1.59375 1.1875 2.640625q1.1875 1.03125 3.578125 1.03125zm6.21875 -11.941406l-12.453125 0l0 -1.890625l1.890625 0q-1.328125 -0.734375 -1.75 -1.34375q-0.421875 -0.625 -0.421875 -1.359375q0 -1.0625 0.6875 -2.171875l1.953125 0.734375q-0.453125 0.765625 -0.453125 1.546875q0 0.6875 0.421875 1.25q0.40625 0.546875 1.140625 0.78125q1.125 0.34375 2.46875 0.34375l6.515625 0l0 2.109375zm-3.71875 -7.1640625l-0.328125 -2.09375q1.25 -0.171875 1.921875 -0.96875q0.671875 -0.8125 0.671875 -2.25q0 -1.453125 -0.59375 -2.15625q-0.59375 -0.703125 -1.390625 -0.703125q-0.71875 0 -1.125 0.625q-0.28125 0.421875 -0.71875 2.15625q-0.578125 2.3125 -1.0 3.21875q-0.4375 0.890625 -1.1875 1.359375q-0.765625 0.453125 -1.671875 0.453125q-0.828125 0 -1.53125 -0.375q-0.71875 -0.390625 -1.1875 -1.046875q-0.359375 -0.484375 -0.609375 -1.328125q-0.265625 -0.859375 -0.265625 -1.828125q0 -1.46875 0.421875 -2.578125q0.421875 -1.109375 1.15625 -1.625q0.71875 -0.53125 1.921875 -0.734375l0.28125 2.0625q-0.96875 0.140625 -1.5 0.8125q-0.546875 0.671875 -0.546875 1.90625q0 1.453125 0.484375 2.078125q0.484375 0.625 1.125 0.625q0.40625 0 0.734375 -0.265625q0.34375 -0.25 0.5625 -0.8125q0.125 -0.3125 0.546875 -1.859375q0.59375 -2.234375 0.984375 -3.109375q0.375 -0.890625 1.109375 -1.390625q0.71875 -0.515625 1.796875 -0.515625q1.046875 0 1.984375 0.625q0.9375 0.609375 1.453125 1.765625q0.5 1.15625 0.5 2.625q0 2.421875 -1.0 3.703125q-1.015625 1.265625 -3.0 1.625z" fill-rule="nonzero"></path><path fill="#000000" fill-opacity="0.0" d="m208.97375 72.91863l58.393707 0" fill-rule="evenodd"></path><path stroke="#000000" stroke-width="1.0" stroke-linejoin="round" stroke-linecap="butt" d="m208.97375 72.91863l52.393707 0" fill-rule="evenodd"></path><path fill="#000000" stroke="#000000" stroke-width="1.0" stroke-linecap="butt" d="m261.36746 74.570366l4.538086 -1.6517334l-4.538086 -1.6517334z" fill-rule="evenodd"></path><path fill="#000000" fill-opacity="0.0" d="m271.3517 440.91864l-60.000015 0" fill-rule="evenodd"></path><path stroke="#000000" stroke-width="1.0" stroke-linejoin="round" stroke-linecap="butt" d="m271.3517 440.91864l-54.000015 0" fill-rule="evenodd"></path><path fill="#000000" stroke="#000000" stroke-width="1.0" stroke-linecap="butt" d="m217.3517 439.2669l-4.538086 1.6517334l4.538086 1.6517334z" fill-rule="evenodd"></path></g></svg>

